PathFileType	4	(X/Y/Z)	/Users/niels/Desktop/University/Third Semester/Perception and Action/Exam/Gymnastics Motion Tracking/Code for Gym Tracking/Analyzed Data/Start Salto/stsalto_good_id8_2_Sports2D/stsalto_good_id8_2_Sports2D_px_person00.trc
DataRate	CameraRate	NumFrames	NumMarkers	Units	OrigDataRate	OrigDataStartFrame	OrigNumFrames
29.788732394366196	29.788732394366196	9	22	m	29.788732394366196	35	142
Frame#	Time	Hip			RHip			RKnee			RAnkle			RBigToe			RSmallToe			RHeel			LHip			LKnee			LAnkle			LBigToe			LSmallToe			LHeel			Neck			Head			Nose			RShoulder			RElbow			RWrist			LShoulder			LElbow			LWrist		
		X1	Y1	Z1	X2	Y2	Z2	X3	Y3	Z3	X4	Y4	Z4	X5	Y5	Z5	X6	Y6	Z6	X7	Y7	Z7	X8	Y8	Z8	X9	Y9	Z9	X10	Y10	Z10	X11	Y11	Z11	X12	Y12	Z12	X13	Y13	Z13	X14	Y14	Z14	X15	Y15	Z15	X16	Y16	Z16	X17	Y17	Z17	X18	Y18	Z18	X19	Y19	Z19	X20	Y20	Z20	X21	Y21	Z21	X22	Y22	Z22
35	1.1749408983451537	0.997129966599009	-0.2317192607122406	0.0	0.9949523904890347	-0.23322267191823667	0.0	0.8725800060430814	-0.2564117072177637	0.0	0.8707242009544008	-0.15497901491879748	0.0	0.8250424758213027	-0.13100152115758648	0.0	0.8359799830883231	-0.12836690278281013	0.0	0.8915232304908043	-0.14588753583041983	0.0	1.0008475372331767	-0.2287030567206683	0.0	0.885736392153393	-0.26471646012844	0.0	0.9219134970914947	-0.1649217267146166	0.0	0.8502059341361401	-0.1305129956489109	0.0	0.8801150347688395	-0.13082066793684174	0.0	0.9278365415389787	-0.1473074789369678	0.0	0.9594990078156767	-0.40876678920665954	0.0	0.9168631458850156	-0.46803361829762197	0.0	0.9171491267448697	-0.42699559666786235	0.0	0.9712439066761286	-0.38974874063191817	0.0	0.9229502767698993	-0.29177970563089506	0.0	0.8593475117745519	-0.2639478258713444	0.0	0.979458079651301	-0.40412931084053605	0.0	0.9403326262402066	-0.3109194887825232	0.0	0.9017037067410895	-0.2660658897742628	0.0
36	1.2085106382978723	1.009348456751907	-0.23399434795758042	0.0	1.0075634204825232	-0.23408637296322915	0.0	0.8808801997227377	-0.24546866621564128	0.0	0.8886974495028195	-0.14612042698151412	0.0	0.8455982171235025	-0.1164580662361123	0.0	0.8559526461692227	-0.11471677852269248	0.0	0.9152143798083261	-0.13908978797246888	0.0	1.0133818553958602	-0.23147132510735166	0.0	0.8918239742157636	-0.25482628853212774	0.0	0.9410391003039881	-0.15713863748196402	0.0	0.8692647522619545	-0.11487240581181844	0.0	0.8999842801198071	-0.11955787223897013	0.0	0.9483570375058281	-0.1413285339200317	0.0	0.9574070014647946	-0.4065557598109317	0.0	0.90796836531755	-0.4624981688192573	0.0	0.9145214301767223	-0.42096487850830194	0.0	0.9706062953557242	-0.3891323459613555	0.0	0.9302684610652944	-0.28654460172501534	0.0	0.8711161527396377	-0.25394589919036525	0.0	0.97817193982936	-0.4026094326368925	0.0	0.9459444230672182	-0.3052212131872821	0.0	0.9039213583201714	-0.255853428698534	0.0
37	1.242080378250591	1.0209869814418941	-0.2366095019008286	0.0	1.0197169925018783	-0.23544310709690355	0.0	0.88994467849947	-0.23580730426944208	0.0	0.9064111476483191	-0.1379245724295632	0.0	0.8657314096464339	-0.1036172795447837	0.0	0.8753109159000945	-0.10246670932674004	0.0	0.9361240611832095	-0.13301083848506284	0.0	1.0249682651254357	-0.23483173770341748	0.0	0.8999918769531986	-0.24578304313120602	0.0	0.9600364405924158	-0.15102412349272865	0.0	0.889595658953598	-0.10244917913055761	0.0	0.9198438439519179	-0.11378520251720989	0.0	0.9686217151007926	-0.13697675948941662	0.0	0.9555135907009586	-0.4040003169375379	0.0	0.8997256247967055	-0.45630291613971735	0.0	0.9124278411051008	-0.41400998465668276	0.0	0.9700927384082434	-0.3880368410830689	0.0	0.9376568871948392	-0.2816063280942576	0.0	0.883119663042986	-0.2447519608100566	0.0	0.9769522051049729	-0.3996787546693504	0.0	0.9507353882794047	-0.2996492425771488	0.0	0.9043739126798627	-0.2462741017478188	0.0
38	1.2756501182033098	1.0325642288434589	-0.23958383912574782	0.0	1.0315750340081293	-0.23759502782671957	0.0	0.899996153209736	-0.22723389722937876	0.0	0.9241897554799725	-0.12986871799450073	0.0	0.8853342523595208	-0.09207448492667202	0.0	0.8941230584601795	-0.09124721398698236	0.0	0.9533280666832729	-0.1268877798289561	0.0	1.0360243590384628	-0.23869696552358036	0.0	0.9106319619181311	-0.23742177275067564	0.0	0.9795010909560914	-0.1465987149678896	0.0	0.9119555999015275	-0.09320267265664327	0.0	0.9406489206286749	-0.1128991884285546	0.0	0.9892051306303341	-0.1341031319287553	0.0	0.9536176773695783	-0.40117514372429014	0.0	0.8919533572533894	-0.44920799269775163	0.0	0.9104705110843374	-0.406213122800638	0.0	0.969659059788996	-0.3862639806052299	0.0	0.9451672665287221	-0.27676963003091914	0.0	0.8953513660558671	-0.2361832496763826	0.0	0.9755971987114164	-0.3958200890465283	0.0	0.955487350305799	-0.2946633427199131	0.0	0.9069035164640927	-0.23727130334929017	0.0
39	1.3092198581560284	1.0444091915199056	-0.24311773678762857	0.0	1.0432085397127915	-0.24080742217226445	0.0	0.9112151312264687	-0.21952330338421633	0.0	0.9424388888946171	-0.12172846808813519	0.0	0.9047388922318335	-0.08147217014841918	0.0	0.912960530914868	-0.08081241342119946	0.0	0.9678068943230411	-0.12030584939864691	0.0	1.0468572085685268	-0.24317553397664482	0.0	0.9235350699218028	-0.22950875781574362	0.0	0.9998395245784703	-0.143695493095402	0.0	0.9379937637705331	-0.08695204049241884	0.0	0.9634825320345768	-0.11481962979338906	0.0	1.0104566901820706	-0.13270575536049797	0.0	0.9517388327078627	-0.3980200936180402	0.0	0.8847355974900974	-0.4410899057101239	0.0	0.9083164716831721	-0.3978257186091606	0.0	0.9692049499615719	-0.38368053263539437	0.0	0.9527854075258565	-0.27206087468122053	0.0	0.907913063137351	-0.22826926167096703	0.0	0.9740421547954987	-0.3915265330979956	0.0	0.9607423565651217	-0.29056876189506287	0.0	0.9129069988122038	-0.22894287182288786	0.0
40	1.342789598108747	1.0563688293224167	-0.2473791276669911	0.0	1.0545082196202937	-0.24512284430573753	0.0	0.923463577573386	-0.2126189118179827	0.0	0.9612953574781503	-0.11359988425455354	0.0	0.9243931066474015	-0.07173368655093815	0.0	0.9324169239364534	-0.07128824684810736	0.0	0.981589069609886	-0.11324648850622726	0.0	1.0574427619503628	-0.24831594668130494	0.0	0.9379136495063346	-0.22206808455315089	0.0	1.0208287192981542	-0.14215014567647347	0.0	0.9690048354937202	-0.0839153844106216	0.0	0.9890721374146729	-0.1170201355951776	0.0	1.032031501210882	-0.1328810247452231	0.0	0.9500876992785696	-0.39444446577240067	0.0	0.8783777254216302	-0.432050907045423	0.0	0.9059009401080294	-0.3892081973591893	0.0	0.9686599890726892	-0.38038049161281046	0.0	0.9603391922398826	-0.267812970438908	0.0	0.9206806526020715	-0.22129044239181372	0.0	0.9723801281526061	-0.38723229238165535	0.0	0.9666166094684272	-0.28766642897011846	0.0	0.9217770767747895	-0.2217196930637537	0.0
41	1.3763593380614658	1.0679071022792468	-0.2523546993653757	0.0	1.065260514739644	-0.2502924953813222	0.0	0.936338956835191	-0.20657886272507095	0.0	0.9806962480172332	-0.1057826600966439	0.0	0.9446225080311815	-0.06300493396556098	0.0	0.95275316226597	-0.06310793255370394	0.0	0.9964102331543847	-0.1059940909779423	0.0	1.0674999895246144	-0.2539107392351344	0.0	0.9526741845469425	-0.21540084222276476	0.0	1.041731219544938	-0.14190710152942634	0.0	1.004342275280228	-0.08456125246012172	0.0	1.0173593750945242	-0.11795319073094099	0.0	1.0531778187413967	-0.13463505766088893	0.0	0.948884092859513	-0.3904037504910023	0.0	0.8730824622912484	-0.42235456983176	0.0	0.9035340024522105	-0.38060530232169654	0.0	0.9680799240532638	-0.3766792603737175	0.0	0.9676034196435229	-0.26445484792002577	0.0	0.9332826007098591	-0.21556893894337928	0.0	0.9707949053736628	-0.3832376895282606	0.0	0.972789320374926	-0.28602363328174807	0.0	0.9322625859463388	-0.21615969536287322	0.0
42	1.4099290780141844	1.0784879904264428	-0.25784898930856154	0.0	1.0753026136396922	-0.2559378791978323	0.0	0.9495497561532813	-0.2014254614791045	0.0	1.0006810588367647	-0.09869460205091084	0.0	0.9657085972685515	-0.05551497138420893	0.0	0.9740814136793282	-0.05675487886615038	0.0	1.0132699942365142	-0.09900134436338365	0.0	1.0766808156867804	-0.2595767262079682	0.0	0.9668186538240328	-0.20974420158727528	0.0	1.0618597053052585	-0.1429532253033751	0.0	1.0411130746652275	-0.08887478875823919	0.0	1.0470302179475892	-0.117486437480263	0.0	1.0734322554224216	-0.1378938231742152	0.0	0.9482307446029384	-0.38587669857203427	0.0	0.8688562350055875	-0.41221531734362604	0.0	0.9017605609034908	-0.37199458593614615	0.0	0.9676264223424342	-0.37295902164500166	0.0	0.9744621587355438	-0.26220597242649735	0.0	0.9453681039335653	-0.21125026671356495	0.0	0.969463106538058	-0.379576501924446	0.0	0.9786776086577785	-0.285203297821124	0.0	0.9433512365590238	-0.21261265704598323	0.0
43	1.443498817966903	1.0879310917205491	-0.2636406372511632	0.0	1.0846286537572556	-0.2618147586372976	0.0	0.963175362293375	-0.1970343562870311	0.0	1.0215200323836573	-0.09274593644751462	0.0	0.9880216584462749	-0.0495293760193084	0.0	0.9966800625989126	-0.05246034938105439	0.0	1.0326220237515575	-0.09274359736092759	0.0	1.0847716967820988	-0.2650790945668751	0.0	0.9799008830380483	-0.204997092589291	0.0	1.0811496445375621	-0.14532147148739255	0.0	1.0761805835688785	-0.09596906657672763	0.0	1.0763635172304031	-0.1164679280277291	0.0	1.0931054866958387	-0.14274549001517295	0.0	0.9481238151951727	-0.3808165191051346	0.0	0.8656983063073163	-0.4016639712248861	0.0	0.9010558568984788	-0.36318961134163824	0.0	0.9674587149095021	-0.3693726688956045	0.0	0.9809982557940431	-0.2608776145943391	0.0	0.9568693642599346	-0.20817279203935526	0.0	0.9685227340732624	-0.37605706893427476	0.0	0.9838504743874591	-0.284408208684143	0.0	0.9545223683925441	-0.21104319297243698	0.0
